<svg id="Layer_1" data-name="Layer 1" xmlns="http://www.w3.org/2000/svg" viewBox="0 0 130.39 178.79"><defs><style>.cls-1{fill:#366773;}.cls-2{fill:#fff;}.cls-3{fill:#407d8b;}</style></defs><path class="cls-1" d="M66.92,178.79l52.35-77.73c14.73-25.9,13.45-56.95-2.94-77.74C98.61.86,70.86,0,65.16,0,58.39,0,31.94.9,14.58,22.13-2,42.4-3.75,73.21,10.46,99.26Z"/><path class="cls-2" d="M35.39,18.62H95.82v7.5H35.46Q35.42,22.37,35.39,18.62Z"/><path class="cls-2" d="M39.08,27.58H92.13v75H72.43V82.43H59.11v20.26h-20Q39.11,65.13,39.08,27.58Z"/><path class="cls-3" d="M45,32.2h9.23V40h-9.3C44.92,37.43,44.94,34.81,45,32.2Z"/><path class="cls-3" d="M61.13,32.2h9.23V40h-9.3C61.08,37.43,61.11,34.81,61.13,32.2Z"/><path class="cls-3" d="M77.3,32.2h9.23V40h-9.3C77.25,37.43,77.27,34.81,77.3,32.2Z"/><path class="cls-3" d="M77.23,48.74h9.23v7.84h-9.3C77.18,54,77.2,51.35,77.23,48.74Z"/><path class="cls-3" d="M61.27,48.74H70.5v7.84H61.2C61.22,54,61.25,51.35,61.27,48.74Z"/><path class="cls-3" d="M45,48.74h9.23v7.84H45C45,54,45,51.35,45,48.74Z"/><path class="cls-3" d="M45.1,65.46h9.23V73.3H45C45.05,70.69,45.08,68.07,45.1,65.46Z"/><path class="cls-3" d="M61.13,65.46h9.23V73.3h-9.3C61.08,70.69,61.11,68.07,61.13,65.46Z"/><path class="cls-3" d="M77.3,65.46h9.23V73.3h-9.3C77.25,70.69,77.27,68.07,77.3,65.46Z"/></svg>